<mxfile host="app.diagrams.net" modified="2024-01-25T11:10:05.190Z" agent="Mozilla/5.0 (Macintosh; Intel Mac OS X 10_15_7) AppleWebKit/537.36 (KHTML, like Gecko) Chrome/121.0.0.0 Safari/537.36" etag="XEmRI_BRs5C17R7vzwuw" version="22.1.21" type="github">
  <diagram name="第 1 页" id="lP-zoGvPF34fVr40256u">
    <mxGraphModel dx="909" dy="577" grid="1" gridSize="10" guides="1" tooltips="1" connect="1" arrows="1" fold="1" page="1" pageScale="1" pageWidth="827" pageHeight="1169" math="0" shadow="0">
      <root>
        <mxCell id="0" />
        <mxCell id="1" parent="0" />
        <mxCell id="g51ZoofxoQrhvGVgscI5-1" value="" style="rounded=0;whiteSpace=wrap;html=1;" vertex="1" parent="1">
          <mxGeometry x="350" y="280" width="340" height="540" as="geometry" />
        </mxCell>
        <mxCell id="g51ZoofxoQrhvGVgscI5-3" value="用户登录流程" style="text;html=1;strokeColor=none;fillColor=none;align=center;verticalAlign=middle;whiteSpace=wrap;rounded=0;" vertex="1" parent="1">
          <mxGeometry x="480" y="280" width="80" height="30" as="geometry" />
        </mxCell>
        <mxCell id="g51ZoofxoQrhvGVgscI5-4" value="" style="endArrow=none;html=1;rounded=0;exitX=-0.003;exitY=0.074;exitDx=0;exitDy=0;exitPerimeter=0;entryX=1;entryY=0.076;entryDx=0;entryDy=0;entryPerimeter=0;" edge="1" parent="1">
          <mxGeometry width="50" height="50" relative="1" as="geometry">
            <mxPoint x="350" y="349.99999999999994" as="sourcePoint" />
            <mxPoint x="690.02" y="350.96" as="targetPoint" />
          </mxGeometry>
        </mxCell>
        <mxCell id="g51ZoofxoQrhvGVgscI5-5" value="" style="endArrow=none;html=1;rounded=0;jumpSize=19;" edge="1" parent="1">
          <mxGeometry width="50" height="50" relative="1" as="geometry">
            <mxPoint x="520" y="311" as="sourcePoint" />
            <mxPoint x="520" y="737" as="targetPoint" />
          </mxGeometry>
        </mxCell>
        <mxCell id="g51ZoofxoQrhvGVgscI5-6" value="客户端" style="text;html=1;strokeColor=none;fillColor=none;align=center;verticalAlign=middle;whiteSpace=wrap;rounded=0;" vertex="1" parent="1">
          <mxGeometry x="400" y="320" width="60" height="30" as="geometry" />
        </mxCell>
        <mxCell id="g51ZoofxoQrhvGVgscI5-7" value="服务端" style="text;html=1;strokeColor=none;fillColor=none;align=center;verticalAlign=middle;whiteSpace=wrap;rounded=0;" vertex="1" parent="1">
          <mxGeometry x="580" y="320" width="60" height="30" as="geometry" />
        </mxCell>
        <mxCell id="g51ZoofxoQrhvGVgscI5-8" value="开始" style="rounded=1;whiteSpace=wrap;html=1;" vertex="1" parent="1">
          <mxGeometry x="400" y="370" width="60" height="30" as="geometry" />
        </mxCell>
        <mxCell id="g51ZoofxoQrhvGVgscI5-12" value="" style="endArrow=none;html=1;rounded=0;exitX=-0.003;exitY=0.074;exitDx=0;exitDy=0;exitPerimeter=0;entryX=1;entryY=0.076;entryDx=0;entryDy=0;entryPerimeter=0;" edge="1" parent="1">
          <mxGeometry width="50" height="50" relative="1" as="geometry">
            <mxPoint x="349.98" y="309.99999999999994" as="sourcePoint" />
            <mxPoint x="690" y="310.96" as="targetPoint" />
          </mxGeometry>
        </mxCell>
      </root>
    </mxGraphModel>
  </diagram>
</mxfile>
